{"accessors" : [{"bufferView" : 0, "byteOffset" : 0, "componentType" : 5123, "count" : 3570, "type" : "SCALAR", "max" : [3569], "min" : [0]}, {"bufferView" : 1, "byteOffset" : 0, "componentType" : 5126, "count" : 3570, "type" : "VEC3", "max" : [0.6178399920463562, 0.6303379535675049, 0.2662771940231323], "min" : [-0.6425062417984009, -0.6303647756576538, -1.5294526815414429], "name" : "POSITION"}, {"bufferView" : 1, "byteOffset" : 12, "componentType" : 5126, "count" : 3570, "type" : "VEC3", "max" : [0.9969614744186401, 0.9998852610588074, 0.3285696506500244], "min" : [-0.999846875667572, -0.9998763203620911, -0.9989771246910095], "name" : "NORMAL"}, {"bufferView" : 1, "byteOffset" : 24, "componentType" : 5126, "count" : 3570, "type" : "VEC2", "max" : [0.7688775062561035, 0.97250896692276], "min" : [0.019583050161600113, 0.17523586750030518], "name" : "TEXCOORD_0"}, {"bufferView" : 0, "byteOffset" : 7140, "componentType" : 5123, "count" : 15552, "type" : "SCALAR", "max" : [15551], "min" : [0]}, {"bufferView" : 2, "byteOffset" : 0, "componentType" : 5126, "count" : 15552, "type" : "VEC3", "max" : [0.8128544092178345, 0.8015524744987488, -0.6650314331054688], "min" : [-0.8128544092178345, -0.8241563439369202, -2.1761670112609863], "name" : "POSITION"}, {"bufferView" : 2, "byteOffset" : 12, "componentType" : 5126, "count" : 15552, "type" : "VEC3", "max" : [1.0000044107437134, 1.0000044107437134, 0.976956307888031], "min" : [-1.0000044107437134, -1.0000044107437134, -0.9997780919075012], "name" : "NORMAL"}, {"bufferView" : 2, "byteOffset" : 24, "componentType" : 5126, "count" : 15552, "type" : "VEC2", "max" : [0.861473798751831, 0.810599148273468], "min" : [0.22621706128120422, 0.0326838493347168], "name" : "TEXCOORD_0"}, {"bufferView" : 0, "byteOffset" : 38244, "componentType" : 5123, "count" : 1716, "type" : "SCALAR", "max" : [1715], "min" : [0]}, {"bufferView" : 3, "byteOffset" : 0, "componentType" : 5126, "count" : 1716, "type" : "VEC3", "max" : [0.4159415364265442, 0.4282451868057251, 0.9470791220664978], "min" : [-0.440548837184906, -0.4282451868057251, 0.2662771940231323], "name" : "POSITION"}, {"bufferView" : 3, "byteOffset" : 12, "componentType" : 5126, "count" : 1716, "type" : "VEC3", "max" : [0.9127646684646606, 0.9127644300460815, 0.9514644145965576], "min" : [-0.9127647280693054, -0.9127649664878845, -0.5211917161941528], "name" : "NORMAL"}, {"bufferView" : 3, "byteOffset" : 24, "componentType" : 5126, "count" : 1716, "type" : "VEC2", "max" : [0.8925902843475342, 0.3057846426963806], "min" : [0.019583050161600113, 0.08358395099639893], "name" : "TEXCOORD_0"}, {"bufferView" : 0, "byteOffset" : 41676, "componentType" : 5123, "count" : 3804, "type" : "SCALAR", "max" : [3803], "min" : [0]}, {"bufferView" : 4, "byteOffset" : 0, "componentType" : 5126, "count" : 3804, "type" : "VEC3", "max" : [0.5092880725860596, 0.5092880725860596, 0.42403289675712585], "min" : [-0.5092880725860596, -0.5092880725860596, -0.10000002384185791], "name" : "POSITION"}, {"bufferView" : 4, "byteOffset" : 12, "componentType" : 5126, "count" : 3804, "type" : "VEC3", "max" : [1.0000044107437134, 1.0000044107437134, 1.0000044107437134], "min" : [-1.0000044107437134, -1.0000044107437134, -1.0000044107437134], "name" : "NORMAL"}, {"bufferView" : 4, "byteOffset" : 24, "componentType" : 5126, "count" : 3804, "type" : "VEC2", "max" : [0.9510452747344971, 0.97250896692276], "min" : [0.019583050161600113, 0.09244590997695923], "name" : "TEXCOORD_0"}, {"bufferView" : 0, "byteOffset" : 49284, "componentType" : 5123, "count" : 1344, "type" : "SCALAR", "max" : [1343], "min" : [0]}, {"bufferView" : 5, "byteOffset" : 0, "componentType" : 5126, "count" : 1344, "type" : "VEC3", "max" : [0.325586199760437, 0.325586199760437, 0.09723279625177383], "min" : [-0.325586199760437, -0.325586199760437, -0.09723279625177383], "name" : "POSITION"}, {"bufferView" : 5, "byteOffset" : 12, "componentType" : 5126, "count" : 1344, "type" : "VEC3", "max" : [1.0000042915344238, 1.0000044107437134, 1.0000044107437134], "min" : [-1.0000044107437134, -1.0000042915344238, -1.7209839597853716E-07], "name" : "NORMAL"}, {"bufferView" : 5, "byteOffset" : 24, "componentType" : 5126, "count" : 1344, "type" : "VEC2", "max" : [0.9803776741027832, 0.97250896692276], "min" : [0.16667675971984863, 0.07779818773269653], "name" : "TEXCOORD_0"}, {"bufferView" : 0, "byteOffset" : 51972, "componentType" : 5123, "count" : 1440, "type" : "SCALAR", "max" : [1439], "min" : [0]}, {"bufferView" : 6, "byteOffset" : 0, "componentType" : 5126, "count" : 1440, "type" : "VEC3", "max" : [0.2749442458152771, 0.2749439775943756, 0.17079775035381317], "min" : [-0.2749440371990204, -0.27494415640830994, 0.07490435987710953], "name" : "POSITION"}, {"bufferView" : 6, "byteOffset" : 12, "componentType" : 5126, "count" : 1440, "type" : "VEC3", "max" : [0.9623683094978333, 0.9623705148696899, 1.0000042915344238], "min" : [-0.9623695611953735, -0.9623690247535706, 0.27175596356391907], "name" : "NORMAL"}, {"bufferView" : 6, "byteOffset" : 24, "componentType" : 5126, "count" : 1440, "type" : "VEC2", "max" : [0.7344154715538025, 0.17418420314788818], "min" : [0.6436843872070312, 0.08381479978561401], "name" : "TEXCOORD_0"}], "asset" : {"generator" : "Aspose.3D 24.2.0", "version" : "2.0"}, "buffers" : [{"uri" : "buffer.bin", "byteLength" : 932512}], "bufferViews" : [{"buffer" : 0, "byteOffset" : 0, "byteLength" : 54852, "target" : 34963}, {"buffer" : 0, "byteOffset" : 54856, "byteLength" : 114240, "byteStride" : 32, "target" : 34962}, {"buffer" : 0, "byteOffset" : 169100, "byteLength" : 497664, "byteStride" : 32, "target" : 34962}, {"buffer" : 0, "byteOffset" : 666768, "byteLength" : 54912, "byteStride" : 32, "target" : 34962}, {"buffer" : 0, "byteOffset" : 721684, "byteLength" : 121728, "byteStride" : 32, "target" : 34962}, {"buffer" : 0, "byteOffset" : 843416, "byteLength" : 43008, "byteStride" : 32, "target" : 34962}, {"buffer" : 0, "byteOffset" : 886428, "byteLength" : 46080, "byteStride" : 32, "target" : 34962}], "images" : [{"uri" : "/Volumes/Main 4TB/Business/Digital Products/Assets/Toy Rocket/Exports/Toy Rocket 4K/Toy Rocket_Toy Ship_Normal.png"}, {"uri" : "/Volumes/Main 4TB/Business/Digital Products/Assets/Toy Rocket/Exports/Toy Rocket 4K/Toy Rocket_Toy Ship_BaseColor.png"}], "materials" : [{"name" : "Toy Ship", "pbrMetallicRoughness" : {"baseColorFactor" : [1, 1, 1, 1], "baseColorTexture" : {"index" : 1, "texCoord" : 0}, "metallicFactor" : 1, "roughnessFactor" : 1}, "normalTexture" : {"index" : 0, "texCoord" : 0, "scale" : 1}, "emissiveFactor" : [0, 0, 0], "alphaMode" : "OPAQUE", "doubleSided" : false}, {"name" : "Toy Ship", "pbrMetallicRoughness" : {"baseColorFactor" : [1, 1, 1, 1], "baseColorTexture" : {"index" : 1, "texCoord" : 0}, "metallicFactor" : 1, "roughnessFactor" : 1}, "normalTexture" : {"index" : 0, "texCoord" : 0, "scale" : 1}, "emissiveFactor" : [0, 0, 0], "alphaMode" : "OPAQUE", "doubleSided" : false}, {"name" : "Toy Ship", "pbrMetallicRoughness" : {"baseColorFactor" : [1, 1, 1, 1], "baseColorTexture" : {"index" : 1, "texCoord" : 0}, "metallicFactor" : 1, "roughnessFactor" : 1}, "normalTexture" : {"index" : 0, "texCoord" : 0, "scale" : 1}, "emissiveFactor" : [0, 0, 0], "alphaMode" : "OPAQUE", "doubleSided" : false}, {"name" : "Toy Ship", "pbrMetallicRoughness" : {"baseColorFactor" : [1, 1, 1, 1], "baseColorTexture" : {"index" : 1, "texCoord" : 0}, "metallicFactor" : 1, "roughnessFactor" : 1}, "normalTexture" : {"index" : 0, "texCoord" : 0, "scale" : 1}, "emissiveFactor" : [0, 0, 0], "alphaMode" : "OPAQUE", "doubleSided" : false}, {"name" : "Toy Ship", "pbrMetallicRoughness" : {"baseColorFactor" : [1, 1, 1, 1], "baseColorTexture" : {"index" : 1, "texCoord" : 0}, "metallicFactor" : 1, "roughnessFactor" : 1}, "normalTexture" : {"index" : 0, "texCoord" : 0, "scale" : 1}, "emissiveFactor" : [0, 0, 0], "alphaMode" : "OPAQUE", "doubleSided" : false}, {"name" : "Toy Ship", "pbrMetallicRoughness" : {"baseColorFactor" : [1, 1, 1, 1], "baseColorTexture" : {"index" : 1, "texCoord" : 0}, "metallicFactor" : 1, "roughnessFactor" : 1}, "normalTexture" : {"index" : 0, "texCoord" : 0, "scale" : 1}, "emissiveFactor" : [0, 0, 0], "alphaMode" : "OPAQUE", "doubleSided" : false}], "meshes" : [{"primitives" : [{"attributes" : {"POSITION" : 1, "NORMAL" : 2, "TEXCOORD_0" : 3}, "indices" : 0, "material" : 0, "mode" : 4}], "name" : "Cylinder.002"}, {"primitives" : [{"attributes" : {"POSITION" : 5, "NORMAL" : 6, "TEXCOORD_0" : 7}, "indices" : 4, "material" : 1, "mode" : 4}], "name" : "Cube.003"}, {"primitives" : [{"attributes" : {"POSITION" : 9, "NORMAL" : 10, "TEXCOORD_0" : 11}, "indices" : 8, "material" : 2, "mode" : 4}], "name" : "Cylinder.003"}, {"primitives" : [{"attributes" : {"POSITION" : 13, "NORMAL" : 14, "TEXCOORD_0" : 15}, "indices" : 12, "material" : 3, "mode" : 4}], "name" : "Cylinder.006"}, {"primitives" : [{"attributes" : {"POSITION" : 17, "NORMAL" : 18, "TEXCOORD_0" : 19}, "indices" : 16, "material" : 4, "mode" : 4}], "name" : "Cylinder.007"}, {"primitives" : [{"attributes" : {"POSITION" : 21, "NORMAL" : 22, "TEXCOORD_0" : 23}, "indices" : 20, "material" : 5, "mode" : 4}], "name" : "Cylinder.008"}], "nodes" : [{"matrix" : [-1.6292067955264295E-07, 0.9999999999999867, 0, 0, -0.9999999999999867, -1.6292067955264295E-07, 0, 0, 0, 0, 1, 0, -0.011302020400762558, -4.940243769624431E-10, 0, 1], "mesh" : 1, "name" : "Wings"}, {"mesh" : 2, "name" : "Tip"}, {"matrix" : [1, 0, 0, 0, 0, 1, 0, 0, 0, 0, 1, 0, 0, 0, -1.8507870435714722, 1], "mesh" : 3, "name" : "Engine"}, {"matrix" : [1, 0, 0, 0, 0, 0.266353595913001, 0.9638753871451505, 0, 0, -0.9638753871451505, 0.266353595913001, 0, 0, -0.49528637528419495, -0.17802882194519043, 1], "mesh" : 4, "name" : "Window"}, {"matrix" : [1, 0, 0, 0, 0, 0.266353595913001, 0.9638753871451505, 0, 0, -0.9638753871451505, 0.266353595913001, 0, 0, -0.49528637528419495, -0.17802882194519043, 1], "mesh" : 5, "name" : "Window.001"}, {"children" : [0, 1, 2, 3, 4], "matrix" : [100, 0, 0, 0, 0, -1.6292067955264296E-05, -99.99999999999866, 0, 0, 99.99999999999866, -1.6292067955264296E-05, 0, 0, 216.1129913330078, 0, 1], "mesh" : 0, "name" : "Body"}], "samplers" : [{"magFilter" : 9729, "minFilter" : 9729, "wrapS" : 10497, "wrapT" : 10497}, {"magFilter" : 9729, "minFilter" : 9729, "wrapS" : 10497, "wrapT" : 10497}], "scene" : 0, "scenes" : [{"nodes" : [5]}], "textures" : [{"sampler" : 0, "source" : 0, "name" : "normalmap_texture"}, {"sampler" : 1, "source" : 1, "name" : "base_color_texture"}]}